<svg xmlns="http://www.w3.org/2000/svg" xmlns:xlink="http://www.w3.org/1999/xlink" viewBox="0,0,256,256" width="32px" height="32px" fill-rule="nonzero"><g fill="#4bf63b" fill-rule="nonzero" stroke="none" stroke-width="1" stroke-linecap="butt" stroke-linejoin="miter" stroke-miterlimit="10" stroke-dasharray="" stroke-dashoffset="0" font-family="none" font-weight="none" font-size="none" text-anchor="none" style="mix-blend-mode: normal"><g transform="scale(8,8)"><path d="M5,5v22h22v-22zM7,7h18v18h-18zM9,10.61719v11.00391h2.26563c0.001,-1.054 0.00195,-3.45312 0.00195,-3.45312c0,0 -0.04794,0.01586 0.28906,0.00586c0.591,-0.018 1.18353,-0.01117 1.76953,-0.07617c0.762,-0.084 1.48823,-0.32478 2.11523,-0.80078c0.936,-0.71 1.36284,-1.86116 1.33984,-3.03516c-0.031,-1.606 -0.85091,-2.76508 -2.37891,-3.33008c-0.785,-0.29 -1.60573,-0.31759 -2.42774,-0.30859c-0.991,0.011 -1.98261,-0.02186 -2.97461,-0.00586zM21.45703,10.86328c-0.73,0.09 -2.1875,0.27734 -2.1875,0.27734l-0.20117,2.17773l-1.0957,-0.00391l-0.01172,1.92969l1.11133,-0.00391c0,0 -0.01486,2.85869 -0.00586,4.17969c0.002,0.288 0.0348,0.57933 0.0918,0.86133c0.156,0.768 0.63809,1.23373 1.37109,1.42773c0.808,0.214 1.60267,0.08698 2.38867,-0.16602c0.005,-0.061 0.00391,-1.73242 0.00391,-1.73242c0,0 -0.05864,0.06127 -0.18164,0.07227c-0.222,0.019 -0.44697,0.03644 -0.66797,0.02344c-0.413,-0.024 -0.63055,-0.2393 -0.68555,-0.6543c-0.06,-0.46 -0.03244,-3.81981 -0.02344,-4.00781h0.19531c0.413,0 1.44336,0.00195 1.44336,0.00195c0,0 0.00023,-1.35569 -0.00977,-1.92969h-1.63281c0.033,-0.842 0.06066,-1.64613 0.09766,-2.45312zM12.22852,12.63477c0.32262,-0.00038 0.6453,0.01362 0.9668,0.07813c1.216,0.244 1.80689,1.68878 1.08789,2.67578c-0.312,0.427 -0.75786,0.64608 -1.25586,0.70508c-0.541,0.064 -1.76172,0.07422 -1.76172,0.07422c0,0 0.00195,-1.23944 0.00195,-1.77344c0,-0.583 0.00519,-1.16605 -0.00781,-1.74805c0.323,0.003 0.64612,-0.01134 0.96875,-0.01172z"></path></g></g></svg>